<?xml version="1.0" encoding="UTF-8"?>
<svg width="512" height="512" viewBox="0 0 512 512" xmlns="http://www.w3.org/2000/svg">
  <!-- Background circle -->
  <circle cx="256" cy="256" r="230" fill="#FFE066" stroke="#FF6B35" stroke-width="8"/>
  
  <!-- Bee body -->
  <ellipse cx="256" cy="280" rx="80" ry="120" fill="#FFD700"/>
  
  <!-- Black stripes -->
  <ellipse cx="256" cy="220" rx="75" ry="15" fill="#000000"/>
  <ellipse cx="256" cy="270" rx="75" ry="15" fill="#000000"/>
  <ellipse cx="256" cy="320" rx="75" ry="15" fill="#000000"/>
  
  <!-- Bee head -->
  <circle cx="256" cy="180" r="50" fill="#FFD700"/>
  
  <!-- Eyes -->
  <circle cx="230" cy="170" r="8" fill="#000000"/>
  <circle cx="282" cy="170" r="8" fill="#000000"/>
  
  <!-- Wings -->
  <ellipse cx="180" cy="220" rx="40" ry="25" fill="rgba(255,255,255,0.8)" transform="rotate(-15 180 220)"/>
  <ellipse cx="332" cy="220" rx="40" ry="25" fill="rgba(255,255,255,0.8)" transform="rotate(15 332 220)"/>
  
  <!-- Antennae -->
  <line x1="235" y1="140" x2="220" y2="110" stroke="#000000" stroke-width="4" stroke-linecap="round"/>
  <line x1="277" y1="140" x2="292" y2="110" stroke="#000000" stroke-width="4" stroke-linecap="round"/>
  <circle cx="220" cy="110" r="5" fill="#000000"/>
  <circle cx="292" cy="110" r="5" fill="#000000"/>
  
  <!-- Cute smile -->
  <path d="M 230 190 Q 256 205 282 190" stroke="#000000" stroke-width="3" fill="none" stroke-linecap="round"/>
</svg>